<svg width="32" height="32" viewBox="0 0 32 32" fill="none" xmlns="http://www.w3.org/2000/svg">
<path d="M12.3677 7.43945C12.3774 7.44008 12.3872 7.44066 12.397 7.44141C12.4397 7.44542 12.4823 7.45067 12.5249 7.45703C13.2352 7.55031 13.8958 7.9596 14.2817 8.62793L21.769 21.5967C22.4277 22.7376 22.0369 24.1968 20.896 24.8555C19.7553 25.5137 18.2969 25.1229 17.6382 23.9824L14.0285 17.7306C13.2122 16.317 11.1718 16.3171 10.3558 17.7309L6.75146 23.9756C6.09276 25.1165 4.63358 25.5073 3.49268 24.8486C2.35195 24.1899 1.96097 22.7307 2.61963 21.5898L10.1069 8.62305C10.5832 7.79809 11.4774 7.3669 12.3677 7.43945Z" fill="#2C2C2C"/>
<path d="M6.52374 23.8479C5.93814 24.8617 4.64079 25.2088 3.62676 24.6234C2.61297 24.0378 2.26554 22.7412 2.85074 21.7272C3.43619 20.7132 4.73327 20.3651 5.74736 20.9504C6.7615 21.5359 7.10925 22.8337 6.52374 23.8479Z" fill="white" stroke="#2C2C2C" stroke-width="0.530084"/>
<rect x="20.6987" y="5.96094" width="19.7456" height="4.77076" rx="2.38538" transform="rotate(60 20.6987 5.96094)" fill="#2C2C2C"/>
</svg>

