<svg width="27" height="27" viewBox="0 0 27 27" fill="none" xmlns="http://www.w3.org/2000/svg">
<g style="mix-blend-mode:plus-darker">
<path d="M14.0522 22.3037V13.9121L21.7583 9.58301C21.7922 9.72266 21.8091 9.89616 21.8091 10.1035V16.6797C21.8091 17.2171 21.716 17.6234 21.5298 17.8984C21.3478 18.1693 21.0664 18.4105 20.6855 18.6221L14.2744 22.2085C14.2406 22.2254 14.2046 22.2424 14.1665 22.2593C14.1284 22.2762 14.0903 22.291 14.0522 22.3037ZM12.9478 22.3037C12.9097 22.291 12.8716 22.2762 12.8335 22.2593C12.7954 22.2424 12.7573 22.2254 12.7192 22.2085L6.30811 18.6221C5.93148 18.4105 5.65007 18.1693 5.46387 17.8984C5.27767 17.6234 5.18457 17.2171 5.18457 16.6797V10.1035C5.18457 9.89616 5.20361 9.72266 5.2417 9.58301L12.9478 13.9121V22.3037ZM13.5 12.9346L5.73682 8.59912C5.84684 8.48486 5.99707 8.37695 6.1875 8.27539L9.19629 6.58691L17.0166 10.9731L13.5 12.9346ZM18.1655 10.332L10.3262 5.95215L12.0781 4.96191C12.5605 4.69531 13.0345 4.56201 13.5 4.56201C13.9613 4.56201 14.4331 4.69531 14.9155 4.96191L20.8062 8.27539C20.9035 8.32617 20.9881 8.37907 21.0601 8.43408C21.1362 8.48486 21.2039 8.53988 21.2632 8.59912L18.1655 10.332Z" fill="#686868" style="mix-blend-mode:plus-darker"/>
</g>
</svg>
